**ABCDEFGHIJKLMNOPQRSTUVWXYZabcdefghijklmnopqrstuvwxyz**************************
**PARASOLID !"#$%&'()*+,-./:;<=>?@[\]^_`{|}~0123456789**************************
**PART1;
MC=AMD64;
MC_MODEL=AMD64 Family 23 Model 113 Stepping 0, AuthenticAMD;
MC_ID=unknown;
OS=Windows_NT;
OS_RELEASE=unknown;
FRU=Parasolid Version 31.1, build 290,  3- 9-2020;
APPL=SOLIDWORKS 2020-2020196;
SITE=;
USER=unknown;
FORMAT=text;
GUISE=transmit;
KEY=doorlock-inside-cover;
FILE=doorlock-inside-cover.x_t;
DATE=Wed Mar  2 23:17:15 2022;
**PART2;
SCH=SCH_3101290_31100;
USFLD_SIZE=0;
**PART3;
**END_OF_HEADER*****************************************************************
T51 : TRANSMIT FILE created by modeller version 310129023 SCH_3101290_31100_1300
6222 0 12 34 CCCCCCI4 mesh1006 0 I8 polyline1008 0 CCCCCCCDI5 owner1040 0 CCCCCC
I13 boundary_mesh1006 0 I17 boundary_polyline1008 0 CCCA16 index_map_offset0 0 1
 dA9 index_map82 0 A17 node_id_index_map82 0 A20 schema_embedding_map82 0 A5 chi
ld12 0 A14 lowest_node_id0 0 1 dA16 mesh_offset_data206 0 Z1 2499 2 3 0 0 0 0 0
 0 1e3 1e-8 0 4 0 1 0 1 1 5 6 7 8 0 0 9 10 11 0 0 0 0 0 0 0 81 255 2 2 2457 12 1
 13 0 0 0 0 14 70 11 CI9 list_type0 0 1 uI10 notransmit0 0 1 lCCCDCCDI12 finger_
index0 0 1 dI12 finger_block1012 0 CZ3 0 4 T1 0 0 9 20 1 15 15 13 255 5 99 0 1 0
 16 0 0 17 0 51 255 6 2075 0 18 19 0 0 +-.003 -.03 -.0895 0 -1 0 .003 0 0 -1 31
 255 7 2022 0 10 20 0 0 --.003 -.03 -.0895 0 -1 0 0 0 -1 .003 29 255 8 1897 0 11
 21 0 -.003 -.03 -.0925 19 8 CCCCCCCA5 owner12 0 Z9 33 0 1 17 0 22 V0 16 255 10
 1919 0 ?23 0 24 7 0 0 1 18 255 11 1895 0 23 0 25 8 ?1 17 255 23 0 26 27 28 11 2
9 10 0 30 +18 25 1892 0 31 11 32 21 ?1 17 31 0 33 34 35 25 36 24 0 37 -18 32 188
1 0 38 25 39 40 ?1 29 21 1894 0 25 40 8 -.003 -.02 -.0925 29 40 1883 0 32 41 21
 0 -.02 -.02 29 41 1872 0 39 42 40 0 -.02 -.0895 18 39 1870 0 43 32 44 41 ?1 29
 42 1869 0 44 45 41 0 -.03 -.0895 18 44 1867 0 46 39 47 42 ?1 29 45 1866 0 47 48
 42 0 -.03 -.02 18 47 1864 0 49 44 50 45 ?1 29 48 1858 0 50 51 45 -.003 -.03 -.0
17 18 50 1856 0 52 47 53 48 ?1 29 51 1855 0 53 54 48 -.003 -.02 -.017 18 53 1853
 0 55 50 56 51 ?1 29 54 1679 0 56 57 51 -.006 -.02 -.0925 18 56 1677 0 58 53 59
 54 ?1 29 57 1671 0 59 60 54 -.006 -.02 -.0945 18 59 1669 0 61 56 62 57 ?1 29 60
 1663 0 62 63 57 -.01 -.024 -.0925 18 62 1661 0 64 59 65 60 ?1 29 63 1660 0 65 6
6 60 -.01 -.024 -.0945 18 65 1658 0 67 62 68 63 ?1 29 66 1647 0 68 69 63 -.006 -
.02 -.015 18 68 1645 0 70 65 71 66 ?1 29 69 1639 0 71 72 66 -.006 -.02 -.017 18
 71 1637 0 73 68 74 69 ?1 29 72 1631 0 74 75 69 -.01 -.024 -.017 18 74 1629 0 76
 71 77 72 ?1 29 75 1628 0 77 78 72 -.01 -.024 -.015 18 77 1626 0 79 74 80 75 ?1
 29 78 1394 0 80 81 75 0 -.02 -.0945 18 80 1392 0 82 77 83 78 ?1 29 81 1388 0 83
 84 78 0 -.03 -.0945 18 83 1386 0 85 80 86 81 ?1 29 84 1190 0 86 87 81 .1225 -.0
3 -.01675 18 86 1188 0 88 83 89 84 ?1 29 87 1187 0 89 90 84 .1225 -.02 -.01675 1
8 89 1185 0 91 86 92 87 ?1 29 90 1176 0 92 93 87 .1195 -.02 -.0895 18 92 1174 0
 94 89 95 90 ?1 29 93 1165 0 95 96 90 .1195 -.02 -.01975 18 95 1163 0 97 92 98 9
3 ?1 29 96 1162 0 98 99 93 .1195 -.03 -.01975 18 98 1160 0 100 95 101 96 ?1 29 9
9 1159 0 101 102 96 .1195 -.03 -.0895 18 101 1157 0 103 98 104 99 ?1 29 102 1151
 0 104 105 99 .1225 -.03 -.0925 18 104 1149 0 106 101 107 102 ?1 29 105 1148 0 1
07 108 102 .1225 -.02 -.0925 18 107 1146 0 109 104 110 105 ?1 29 108 972 0 110 1
11 105 .1255 -.02 -.01675 18 110 970 0 112 107 113 108 ?1 29 111 964 0 113 114 1
08 .1255 -.02 -.01475 18 113 962 0 115 110 116 111 ?1 29 114 956 0 116 117 111 .
1295 -.024 -.01675 18 116 954 0 118 113 119 114 ?1 29 117 953 0 119 120 114 .129
5 -.024 -.01475 18 119 951 0 121 116 122 117 ?1 29 120 940 0 122 123 117 .1255 -
.02 -.0945 18 122 938 0 124 119 125 120 ?1 29 123 932 0 125 126 120 .1255 -.02 -
.0925 18 125 930 0 127 122 128 123 ?1 29 126 924 0 128 129 123 .1295 -.024 -.094
5 18 128 922 0 130 125 131 126 ?1 29 129 921 0 131 132 126 .1295 -.024 -.0925 18
 131 919 0 133 128 134 129 ?1 29 132 786 0 134 135 129 .1195 -.03 -.01475 18 134
 784 0 136 131 137 132 ?1 29 135 676 0 137 138 132 .1195 -.03 -.0945 18 137 674
 0 139 134 140 135 ?1 29 138 150 0 140 141 135 .003 0 -.003 18 140 148 0 142 137
 143 138 ?1 29 141 146 0 143 144 138 .003 0 -.1065 18 143 144 0 145 140 146 141
 ?1 29 144 139 0 146 147 141 .1165 0 -.003 18 146 137 0 148 143 149 144 ?1 29 14
7 32 0 149 150 144 0 .003 -.1095 18 149 30 0 151 146 152 147 ?1 29 150 29 0 152
 153 147 .1195 .003 -.1095 18 152 27 0 154 149 155 150 ?1 29 153 26 0 155 156 15
0 .1195 .003 0 18 155 24 0 157 152 158 153 ?1 29 156 23 0 158 159 153 0 .003 0 1
8 158 21 0 160 155 161 156 ?1 29 159 306 0 161 162 156 .1165 -.03 -.1065 18 161
 228 0 163 158 164 159 ?1 29 162 312 0 164 165 159 .1195 -.03 -126737788199219e-
32 18 164 216 0 166 161 167 162 ?1 29 165 313 0 167 168 162 .1195 -.03 -.1095 18
 167 215 0 169 164 170 165 ?1 29 168 314 0 170 171 165 0 -.03 -.1095 18 170 214
 0 172 167 173 168 ?1 29 171 315 0 173 174 168 0 -.03 0 18 173 219 0 175 170 176
 171 ?1 29 174 316 0 177 178 171 .1165 0 -.1065 18 177 227 0 179 180 181 174 ?1
 29 178 319 0 176 182 174 .1165 -.03 -.003 18 176 229 0 183 173 184 178 ?1 29 18
2 320 0 184 185 178 .003 -.03 -.1065 18 184 225 0 186 176 180 182 ?1 29 185 321
 0 180 187 182 .003 -.03 -.003 18 180 223 0 188 184 177 185 ?1 29 187 772 0 189
 190 185 .1195 -.02 -.0945 18 189 723 0 191 192 193 187 ?1 29 190 777 0 181 194
 187 .1295 -.03 -.0945 18 181 725 0 195 177 192 190 ?1 29 194 778 0 192 196 190
 .1295 -.03 -.0925 18 192 722 0 197 181 189 194 ?1 29 196 882 0 198 199 194 .119
5 -.02 -.01475 18 198 835 0 200 201 202 196 ?1 29 199 888 0 193 203 196 .1295 -.
03 -.01675 18 193 836 0 204 189 201 199 ?1 29 203 889 0 201 205 199 .1295 -.03 -
.01475 18 201 833 0 206 193 198 203 ?1 29 205 1486 0 202 207 203 -.01 -.03 -.092
5 18 202 1434 0 208 198 209 205 ?1 29 207 1487 0 209 210 205 -.01 -.03 -.0945 18
 209 1431 0 211 202 212 207 ?1 29 210 1590 0 213 214 207 0 -.03 -.015 18 213 154
3 0 215 216 217 210 ?1 29 214 1593 0 217 218 210 0 -.02 -.015 18 217 1547 0 219
 213 0 214 ?1 29 218 1594 0 212 220 214 -.01 -.03 -.015 18 212 1546 0 221 209 21
6 218 ?1 29 220 1595 0 216 0 218 -.01 -.03 -.017 18 216 1545 0 222 212 213 220 ?
1 17 222 0 223 221 224 216 225 226 0 227 +15 255 223 1566 0 228 229 0 17 221 0 2
23 228 222 212 230 231 0 232 +17 224 0 223 222 228 74 233 234 0 225 +17 225 0 23
5 73 227 74 222 226 0 0 -16 226 1630 0 ?222 231 236 237 0 0 1 17 227 0 235 225 2
38 216 239 240 0 230 -15 235 1559 0 241 242 0 17 238 0 235 227 241 50 243 244 0
 239 +17 239 0 26 49 230 50 227 240 0 0 +16 240 1527 0 ?239 245 246 247 0 0 1 17
 230 0 26 239 232 216 221 231 0 0 -15 26 232 0 248 249 250 17 232 0 26 230 251 2
12 215 246 0 252 -16 231 1537 0 ?221 246 226 253 0 0 1 16 246 1515 0 ?215 240 23
1 254 0 0 1 30 255 253 1586 0 231 237 255 0 +-.01 -.03 -.015 0 0 1 30 237 1587 0
 226 256 253 0 +-.01 -.03 -.017 0 -1 0 30 255 1585 0 257 253 258 0 +0 -.03 -.015
 0 1 0 16 257 1512 0 ?259 260 261 255 0 0 1 30 258 1584 0 260 255 254 0 +0 -.02
 -.015 0 0 -1 16 260 1516 0 ?38 236 257 258 0 0 1 30 254 1581 0 246 258 247 0 +-
.01 -.03 -.015 1 0 0 30 247 1580 0 240 254 262 0 +-.01 -.03 -.017 1 0 0 30 262 1
579 0 245 247 263 0 +-.01 -.02 -.017 1 0 0 16 245 1638 0 ?241 264 240 262 0 0 1
 30 263 1578 0 264 262 265 0 +-.01 -.02 -.015 1 0 0 16 264 1646 0 ?219 266 245 2
63 0 0 1 30 265 1479 0 267 263 268 0 +-.01 -.03 -.0945 0 -1 0 16 267 1659 0 ?211
 269 270 265 0 0 1 30 268 1478 0 269 265 271 0 +-.01 -.03 -.0945 0 0 1 16 269 14
21 0 ?208 272 267 268 0 0 1 30 271 1477 0 272 268 273 0 +-.01 -.03 -.0925 0 1 0
 16 272 1424 0 ?274 275 269 271 0 0 1 30 273 1475 0 266 271 276 0 +0 -.03 -.0945
 0 -1 0 16 266 1402 0 ?277 270 264 273 0 0 1 30 276 1472 0 270 273 278 0 +0 -.02
 -.0945 0 0 -1 16 270 1414 0 ?279 267 266 276 0 0 1 30 278 1471 0 275 276 280 0
 +-.01 -.02 -.0945 1 0 0 16 275 1670 0 ?82 281 272 278 0 0 1 30 280 1470 0 281 2
78 282 0 +-.01 -.02 -.0925 1 0 0 16 281 1678 0 ?283 284 275 280 0 0 1 30 282 146
9 0 284 280 285 0 +-.01 -.03 -.0925 1 0 0 16 284 1413 0 ?30 286 281 282 0 0 1 30
 285 1468 0 286 282 287 0 +-.01 -.03 -.0945 1 0 0 16 286 1409 0 ?288 289 284 285
 0 0 1 31 287 1121 0 290 285 291 0 +.1255 -.024 -.01475 0 0 -1 -1 0 0 .0015 16 2
90 1076 0 ?292 293 289 287 0 0 1 31 291 1120 0 293 287 294 0 +.1255 -.024 -.0945
 0 0 1 1 0 0 .0015 16 293 1073 0 ?295 296 290 291 0 0 1 31 294 1119 0 296 291 29
7 0 +.1255 -.024 -.0925 0 0 -1 -1 0 0 .0015 16 296 1074 0 ?298 299 293 294 0 0 1
 30 297 881 0 300 294 301 0 +.1295 -.03 -.01475 0 -1 0 16 300 952 0 ?206 302 303
 297 0 0 1 30 301 880 0 302 297 304 0 +.1295 -.03 -.01475 0 0 -1 16 302 823 0 ?2
04 305 300 301 0 0 1 30 304 879 0 305 301 306 0 +.1295 -.03 -.01675 0 1 0 16 305
 826 0 ?307 308 302 304 0 0 1 30 306 877 0 299 304 309 0 +.1195 -.03 -.01475 0 -
1 0 16 299 804 0 ?136 303 296 306 0 0 1 30 309 874 0 303 306 310 0 +.1195 -.02 -
.01475 0 0 1 16 303 816 0 ?311 300 299 309 0 0 1 30 310 873 0 308 309 312 0 +.12
95 -.02 -.01475 -1 0 0 16 308 963 0 ?200 313 305 310 0 0 1 30 312 872 0 313 310
 314 0 +.1295 -.02 -.01675 -1 0 0 16 313 971 0 ?315 316 308 312 0 0 1 30 314 871
 0 316 312 317 0 +.1295 -.03 -.01675 -1 0 0 16 316 815 0 ?318 319 313 314 0 0 1
 30 317 870 0 319 314 320 0 +.1295 -.03 -.01475 -1 0 0 16 319 811 0 ?321 322 316
 317 0 0 1 30 320 770 0 323 317 324 0 +.1295 -.03 -.0925 0 -1 0 16 323 920 0 ?19
7 325 326 320 0 0 1 30 324 769 0 325 320 327 0 +.1295 -.03 -.0925 0 0 -1 16 325
 712 0 ?195 328 323 324 0 0 1 30 327 768 0 328 324 329 0 +.1295 -.03 -.0945 0 1
 0 16 328 715 0 ?330 331 325 327 0 0 1 30 329 764 0 322 327 332 0 +.1195 -.03 -.
0945 0 1 0 16 322 701 0 ?333 326 319 329 0 0 1 30 332 763 0 326 329 334 0 +.1195
 -.02 -.0925 0 0 1 16 326 705 0 ?94 323 322 332 0 0 1 30 334 762 0 331 332 335 0
 +.1295 -.02 -.0925 -1 0 0 16 331 931 0 ?336 337 328 334 0 0 1 30 335 761 0 337
 334 338 0 +.1295 -.02 -.0945 -1 0 0 16 337 939 0 ?191 339 331 335 0 0 1 30 338
 760 0 339 335 340 0 +.1295 -.03 -.0945 -1 0 0 16 339 704 0 ?341 342 337 338 0 0
 1 30 340 759 0 342 338 343 0 +.1295 -.03 -.0925 -1 0 0 16 342 700 0 ?344 345 33
9 340 0 0 1 31 343 598 0 345 340 346 0 +.021 -.0162 -.1095 0 0 -1 -1 0 0 .0055 1
6 345 574 0 ?347 348 342 343 0 0 1 31 346 469 0 349 343 350 0 +.1195 -.017 -.084
5 1 0 0 0 0 -1 .005 16 349 445 0 ?351 352 348 346 0 0 1 31 350 412 0 353 346 354
 0 +.1015 -.016 0 0 0 1 1 0 0 .008 16 353 388 0 ?355 356 352 350 0 0 1 30 354 30
5 0 357 350 358 0 +-687775827479792e-34 -.03 -.003 -1 0 2292586091599305e-32 16
 357 198 0 ?188 359 360 354 0 0 1 30 358 304 0 359 354 361 0 +.003 -.03 -3645433
39154548e-33 -1215144463848488e-31 0 -1 16 359 202 0 ?186 362 357 358 0 0 1 30 3
61 303 0 362 358 363 0 +0 -.03 -.1065 1 0 0 16 362 206 0 ?364 365 359 361 0 0 1
 30 363 302 0 365 361 366 0 +.1165 -.03 -156208915904385e-31 1340849063556952e-3
1 0 1 16 365 210 0 ?183 367 362 363 0 0 1 30 366 301 0 368 363 369 0 +-687775827
479792e-34 0 -.003 -1 0 2292586091599305e-32 16 368 170 0 ?142 370 356 366 0 0 1
 30 369 300 0 370 366 371 0 +.003 0 -364543339154548e-33 -1215144463848488e-31 0
 -1 16 370 173 0 ?145 372 368 369 0 0 1 30 371 299 0 372 369 373 0 +0 0 -.1065 1
 0 0 16 372 176 0 ?179 360 370 371 0 0 1 30 373 298 0 360 371 374 0 +.1165 0 -15
6208915904385e-31 1340849063556952e-31 0 1 16 360 179 0 ?148 357 372 373 0 0 1 3
0 374 297 0 367 373 375 0 +.1165 -.03 -.003 0 1 0 16 367 213 0 ?376 377 365 374
 0 0 1 30 375 296 0 377 374 378 0 +.1165 -.03 -.1065 0 1 0 16 377 209 0 ?379 380
 367 375 0 0 1 30 378 295 0 380 375 381 0 +.003 -.03 -.1065 0 1 0 16 380 205 0 ?
382 383 377 378 0 0 1 30 381 294 0 383 378 384 0 +.003 -.03 -.003 0 1 0 16 383 2
01 0 ?385 386 380 381 0 0 1 30 384 293 0 386 381 387 0 +0 -.03 0 -1 0 0 16 386 1
58 0 ?248 388 383 384 0 0 1 30 387 292 0 389 384 390 0 +0 -.03 0 0 0 -1 16 389 1
61 0 ?251 391 392 387 392 388 1 30 390 291 0 391 387 393 0 +0 -.03 -.1095 1 0 0
 16 391 164 0 ?394 395 389 390 0 0 1 30 393 290 0 396 390 397 0 +.1195 -.03 -151
4516568980665e-32 1267377881992188e-31 0 1 16 396 167 0 ?398 399 400 393 400 395
 1 30 397 7 0 399 393 401 0 +0 .003 0 0 0 1 16 399 5 0 ?402 403 396 397 0 0 1 30
 401 11 0 403 397 404 0 +0 .003 0 1 0 0 16 403 9 0 ?157 405 399 401 0 0 1 30 404
 15 0 405 401 406 0 +.1195 .003 0 0 0 -1 16 405 13 0 ?154 407 403 404 0 0 1 30 4
06 19 0 407 404 408 0 +0 .003 -.1095 -1 0 0 16 407 17 0 ?151 409 405 406 0 0 1 3
0 408 95 0 409 406 410 0 +0 .003 -.1095 0 -1 0 16 409 79 0 ?411 412 407 408 0 0
 1 30 410 96 0 412 408 413 0 +.1195 .003 -.1095 0 -1 0 16 412 80 0 ?169 414 409
 410 0 0 1 30 413 97 0 414 410 415 0 +.1195 .003 0 0 -1 0 16 414 81 0 ?416 417 4
12 413 0 0 1 30 415 98 0 417 413 418 0 +0 .003 0 0 -1 0 16 417 82 0 ?175 419 414
 415 0 0 1 31 418 373 0 356 415 420 0 +.1015 -.016 -.003 -2292586091599305e-32 0
 -1 -1 0 2292586091599305e-32 .008 16 356 387 0 ?421 368 353 418 0 0 1 31 420 43
0 0 352 418 422 0 +.1165 -.017 -.0845 -1 0 1340849063556952e-31 1340849063556952
e-31 0 1 .005 16 352 444 0 ?423 353 349 420 0 0 1 31 422 557 0 348 420 424 0 +.0
21 -.0162 -.1065 0 0 1 1 0 0 .0055 16 348 573 0 ?425 349 345 422 0 0 1 30 424 92
7 0 419 422 426 0 +.1295 -.024 0 0 0 1 16 419 925 0 ?427 428 417 424 0 0 1 31 42
6 935 0 428 424 429 0 -.1255 -.024 -.0925 0 0 -1 -1 0 0 .004 16 428 933 0 ?127 4
30 419 426 0 0 1 30 429 943 0 430 426 431 0 -.1255 -.02 -.0925 0 0 1 16 430 941
 0 ?124 432 428 429 0 0 1 31 431 948 0 432 429 433 0 -.1255 -.024 -.0945 0 0 1 1
 0 0 .004 16 432 946 0 ?130 434 430 431 0 0 1 30 433 959 0 434 431 435 0 +.1295
 -.024 0 0 0 1 16 434 957 0 ?436 437 432 433 0 0 1 31 435 967 0 437 433 438 0 -.
1255 -.024 -.01475 0 0 -1 -1 0 0 .004 16 437 965 0 ?115 439 434 435 0 0 1 30 438
 975 0 439 435 440 0 -.1255 -.02 -.01475 0 0 1 16 439 973 0 ?112 441 437 438 0 0
 1 31 440 980 0 441 438 442 0 -.1255 -.024 -.01675 0 0 1 1 0 0 .004 16 441 978 0
 ?118 443 439 440 0 0 1 31 442 1054 0 289 440 444 0 +.1255 -.024 -.01675 0 0 1 1
 0 0 .0015 16 289 1075 0 ?445 290 286 442 0 0 1 30 444 1154 0 443 442 446 0 +.12
25 -.03 -.0925 0 -1 0 16 443 1152 0 ?447 448 441 444 0 0 1 30 446 1166 0 448 444
 449 0 -.1195 -.03 -.01975 0 1 0 16 448 1164 0 ?100 450 443 446 0 0 1 30 449 118
0 0 450 446 451 0 -.1195 -.02 -.0895 0 -1 0 16 450 1178 0 ?452 453 448 449 0 0 1
 30 451 1193 0 453 449 454 0 +.1225 -.02 -.01675 0 1 0 16 453 1191 0 ?455 456 45
0 451 0 0 1 31 454 1308 0 456 451 457 0 -.1225 -.03 -.0895 0 -1 0 0 0 -1 .003 16
 456 1196 0 ?103 458 453 454 0 0 1 31 457 1309 0 458 454 459 0 +.1225 -.02 -.089
5 0 -1 0 0 0 -1 .003 16 458 1202 0 ?109 460 456 457 0 0 1 31 459 1310 0 460 457
 461 0 +.1225 -.02 -.01975 0 -1 0 0 0 -1 .003 16 460 1206 0 ?462 463 458 459 0 0
 1 31 461 1311 0 463 459 464 0 -.1225 -.03 -.01975 0 -1 0 0 0 -1 .003 16 463 121
0 0 ?88 234 460 461 0 0 1 30 464 1634 0 234 461 465 0 +-.01 -.024 -.017 0 0 -1 1
6 234 1632 0 ?224 466 463 464 0 0 1 31 465 1642 0 466 464 467 0 --.006 -.024 -.0
17 0 0 1 1 0 0 .004 16 466 1640 0 ?73 468 234 465 0 0 1 30 467 1650 0 468 465 46
9 0 --.006 -.02 -.015 0 0 -1 16 468 1648 0 ?70 470 466 467 0 0 1 31 469 1655 0 4
70 467 471 0 --.006 -.024 -.015 0 0 -1 -1 0 0 .004 16 470 1653 0 ?79 472 468 469
 0 0 1 30 471 1666 0 472 469 473 0 +-.01 -.024 0 0 0 -1 16 472 1664 0 ?474 475 4
70 471 0 0 1 31 473 1674 0 475 471 476 0 --.006 -.024 -.0945 0 0 1 1 0 0 .004 16
 475 1672 0 ?61 477 472 473 0 0 1 30 476 1682 0 477 473 478 0 --.006 -.02 -.0945
 0 0 -1 16 477 1680 0 ?58 479 475 476 0 0 1 31 478 1687 0 479 476 480 0 --.006 -
.024 -.0925 0 0 -1 -1 0 0 .004 16 479 1685 0 ?64 244 477 478 0 0 1 31 480 1761 0
 481 478 482 0 +-.006 -.024 -.017 0 0 1 1 0 0 .0015 16 481 1782 0 ?483 484 0 480
 0 0 1 30 482 1861 0 244 480 485 0 +-.003 -.03 -.017 0 -1 0 16 244 1859 0 ?238 4
86 479 482 0 0 1 30 485 1873 0 486 482 487 0 -0 -.03 -.0895 0 1 0 16 486 1871 0
 ?46 488 244 485 0 0 1 30 487 1887 0 488 485 489 0 -0 -.02 -.02 0 -1 0 16 488 18
85 0 ?490 491 486 487 0 0 1 30 489 1900 0 491 487 492 0 +-.003 -.02 -.0925 0 1 0
 16 491 1898 0 ?37 493 488 489 0 0 1 31 492 2019 0 493 489 494 0 --.003 -.03 -.0
2 0 -1 0 0 0 -1 .003 16 493 1903 0 ?49 495 491 492 0 0 1 31 494 2020 0 495 492 2
0 0 +-.003 -.02 -.02 0 -1 0 0 0 -1 .003 16 495 1911 0 ?55 24 493 494 0 0 1 31 20
 2021 0 24 494 7 0 +-.003 -.02 -.0895 0 -1 0 0 0 -1 .003 16 24 1915 0 ?36 10 495
 20 0 0 1 17 36 0 496 279 283 39 31 24 0 35 +15 496 1453 0 497 498 0 17 279 0 49
6 497 36 80 43 270 0 0 +17 283 0 496 36 58 25 499 281 0 0 +17 35 0 33 31 29 39 4
6 486 0 0 -15 33 2064 0 29 18 0 17 29 0 33 35 34 44 23 10 0 0 -17 46 0 500 501 4
3 44 35 486 0 28 +15 500 1505 0 501 16 0 17 501 0 500 490 46 47 28 392 0 502 -17
 43 0 500 46 503 39 279 270 0 36 -17 28 0 26 23 49 44 501 392 0 29 +17 49 0 26 2
8 239 47 52 493 0 501 +16 392 1865 0 ?28 389 388 387 388 389 1 16 388 1387 0 ?17
2 392 386 387 389 392 1 17 172 0 26 394 288 170 85 388 0 411 +17 394 0 26 398 17
2 167 504 391 0 505 +17 288 0 26 172 506 83 507 286 0 277 +17 85 0 500 503 411 8
3 172 388 0 288 -17 411 0 500 85 508 170 509 409 0 504 +17 508 0 500 411 510 149
 402 399 0 0 -17 509 0 511 512 504 149 411 409 0 508 -17 504 0 511 509 169 170 3
94 391 0 0 -15 511 83 0 169 513 0 17 169 0 511 504 512 167 514 412 0 394 +17 512
 0 511 169 509 152 151 407 0 0 -17 514 0 515 516 505 152 169 412 0 512 -15 515 7
97 0 517 518 0 17 516 0 515 416 514 155 154 405 0 0 -17 505 0 515 514 139 167 39
8 396 0 0 -17 139 0 515 505 519 137 333 322 0 398 -17 398 0 26 520 394 137 505 3
96 0 341 +17 520 0 26 521 398 181 341 339 0 522 -17 341 0 523 333 522 137 520 33
9 0 0 +15 523 740 0 524 525 0 17 333 0 523 524 341 189 139 322 0 0 +17 522 0 523
 341 130 181 330 328 0 0 -17 130 0 523 522 524 128 526 432 0 330 +17 330 0 527 4
27 195 128 522 328 0 528 +15 527 747 0 330 529 0 17 427 0 527 197 330 131 528 41
9 0 530 +17 195 0 527 330 197 181 521 325 0 520 +17 528 0 531 526 133 128 427 41
9 0 0 -15 531 993 0 526 532 0 17 526 0 531 533 528 122 130 432 0 0 -17 133 0 531
 528 533 131 127 428 0 427 -17 533 0 531 133 526 125 124 430 0 0 -17 127 0 534 3
36 530 125 133 428 0 535 +15 534 732 0 336 536 0 17 336 0 534 447 127 107 535 33
1 0 537 +17 530 0 534 127 538 131 197 323 0 0 -17 535 0 539 124 109 125 336 331
 0 533 -15 539 744 0 535 540 0 17 124 0 539 191 535 122 533 430 0 524 +17 109 0
 539 535 94 107 541 458 0 336 +17 94 0 539 109 191 92 519 326 0 452 +17 541 0 54
2 543 537 92 109 458 0 0 -15 542 1328 0 541 544 0 17 543 0 542 106 541 101 452 4
50 0 0 -17 537 0 542 541 106 107 447 443 0 0 -17 106 0 542 537 543 104 103 456 0
 447 -17 447 0 534 538 336 104 537 443 0 344 +17 538 0 534 530 447 192 344 342 0
 0 -17 344 0 26 103 521 104 538 342 0 0 +17 103 0 26 545 344 101 106 456 0 517 +
17 521 0 26 344 520 192 195 325 0 538 -17 545 0 26 88 103 98 517 400 0 546 +17 5
17 0 515 452 100 101 545 400 0 543 -17 452 0 515 519 517 92 543 450 0 541 +17 10
0 0 515 517 97 98 547 448 0 545 +16 400 1158 0 ?545 396 395 393 395 396 1 16 395
 785 0 ?166 400 391 393 396 400 1 17 166 0 26 248 321 164 548 395 0 416 +17 248
 0 26 251 166 173 549 386 0 0 +17 321 0 26 166 550 134 551 319 0 548 +17 548 0 5
15 552 416 134 166 395 0 0 -17 416 0 515 548 516 164 553 414 0 549 +17 553 0 554
 160 549 155 416 414 0 516 -17 549 0 554 553 175 164 248 386 0 0 -15 554 87 0 17
5 555 0 17 175 0 554 549 160 173 510 417 0 556 +17 160 0 554 175 553 158 157 403
 0 402 -17 510 0 500 508 556 158 175 417 0 0 -17 556 0 500 510 557 173 251 389 0
 248 -17 557 0 500 556 558 213 259 257 0 251 -17 251 0 26 232 248 213 556 389 0
 0 +17 558 0 500 557 490 217 38 260 0 0 -17 259 0 559 560 215 217 557 257 0 558
 +15 559 1551 0 560 561 0 17 560 0 559 79 259 68 219 264 0 562 -17 215 0 559 259
 252 213 232 246 0 557 +17 252 0 559 215 79 212 228 236 0 0 -17 79 0 559 252 560
 77 562 470 0 228 +17 228 0 223 224 221 77 252 236 0 233 +16 236 1528 0 ?228 226
 260 256 0 0 1 30 256 1589 0 236 563 237 0 +-.01 -.03 -.015 0 1 0 31 563 1826 0
 261 564 256 0 +-.006 -.024 -.0945 0 0 1 1 0 0 .0015 16 261 1781 0 ?565 257 566
 563 0 0 1 31 564 1827 0 566 567 563 0 +-.006 -.024 -.0925 0 0 -1 -1 0 0 .0015 1
6 566 1780 0 ?568 261 484 564 0 0 1 31 567 1828 0 484 0 564 0 +-.006 -.024 -.015
 0 0 -1 -1 0 0 .0015 16 484 1783 0 ?569 566 481 567 0 0 1 17 569 0 570 569 569 0
 571 484 0 0 +15 570 1765 0 569 561 559 17 571 0 572 571 571 0 569 484 0 0 -15 5
72 1804 0 571 573 0 14 255 573 1800 574 ?575 576 577 5 578 -575 575 575 576 22 8
1 1 574 2458 579 573 580 0 0 581 582 14 575 1790 581 ?583 573 584 5 578 -573 573
 583 573 22 14 576 1720 585 ?573 586 587 5 588 +0 0 573 586 22 15 577 1803 0 589
 573 572 51 578 1823 0 575 0 590 0 +-.006 -.024 0 0 0 -1 .0015 -1 0 0 13 22 34 0
 0 0 0 0 0 9 16 14 16 1507 591 ?518 0 500 5 592 -0 0 518 0 22 81 1 591 2461 579
 16 593 0 585 594 595 14 518 799 594 ?555 16 596 5 597 -0 0 555 16 22 50 255 592
 94 0 16 598 599 0 +0 .003 0 1 0 0 0 0 -1 50 598 93 0 555 597 592 0 +0 .003 0 0
 0 -1 -1 0 0 51 599 1004 0 532 592 600 0 +.1255 -.024 0 0 0 1 .004 1 0 0 14 532
 992 601 ?602 603 531 5 599 +0 0 602 603 22 51 600 1025 0 602 599 604 0 +.1255 -
.024 0 0 0 1 .004 1 0 0 14 602 1013 605 ?606 532 607 5 600 +0 0 606 532 22 51 60
4 1339 0 544 600 608 0 +.1225 -.03 -.0895 0 1 0 .003 0 0 1 14 544 1327 609 ?610
 611 542 5 604 -0 0 610 611 22 51 608 1360 0 610 604 612 0 +.1225 -.03 -.01975 0
 -1 0 .003 0 0 -1 14 610 1348 613 ?614 544 615 5 608 -0 0 614 544 22 51 612 1711
 0 586 608 588 0 +-.006 -.024 0 0 0 1 .004 1 0 0 14 586 1699 616 ?576 229 617 5
 612 +0 0 576 229 22 51 588 1732 0 576 612 19 0 +-.006 -.024 0 0 0 -1 .004 -1 0
 0 51 19 2054 0 583 588 6 0 +-.003 -.03 -.02 0 1 0 .003 0 0 1 14 583 2042 618 ?1
8 575 619 5 19 -0 0 18 575 22 81 1 618 2468 579 583 620 0 616 621 622 14 18 2063
 621 ?0 583 33 5 6 -0 0 0 583 22 15 619 2043 0 623 583 0 17 623 0 619 502 243 32
 55 495 0 0 -17 502 0 619 52 623 47 490 488 0 0 -17 243 0 619 623 52 53 238 244
 0 0 -17 55 0 624 625 38 53 623 495 0 241 +15 624 1555 0 625 626 0 17 625 0 624
 70 55 71 241 245 0 627 -17 38 0 624 55 219 32 558 260 0 490 +17 241 0 235 238 7
3 53 625 245 0 243 +17 73 0 235 241 225 71 76 466 0 625 +17 76 0 617 233 627 74
 73 466 0 224 -15 617 1700 0 562 586 0 17 233 0 617 562 76 77 224 234 0 0 -17 62
7 0 617 76 562 71 70 468 0 0 -17 562 0 617 627 233 68 79 470 0 0 -17 70 0 624 21
9 625 68 627 468 0 560 +17 219 0 624 38 70 217 560 264 0 259 +17 490 0 500 558 5
01 32 502 488 0 623 +14 626 1552 628 ?242 561 624 5 629 -0 0 242 561 22 81 1 628
 2470 579 626 630 0 621 631 632 14 242 1556 631 ?229 626 633 5 634 -0 0 229 626
 22 14 561 1548 635 ?626 636 570 5 637 -0 0 626 636 22 50 629 1573 0 626 634 637
 0 +-.01 -.02 -.015 0 -1 0 0 0 -1 50 634 1574 0 242 590 629 0 +-.01 -.03 -.017 0
 0 1 1 0 0 50 637 1572 0 561 629 638 0 +-.01 -.03 -.015 0 0 -1 -1 0 0 50 638 146
7 0 636 637 639 0 +-.01 0 0 1 0 0 0 0 -1 14 636 1454 640 ?561 498 641 5 638 -0 0
 561 498 22 50 639 1465 0 498 638 642 0 +-.01 -.02 -.0945 0 -1 0 0 0 -1 14 498 1
450 643 ?636 644 496 5 639 -0 0 636 644 22 50 642 1464 0 644 639 645 0 +-.01 -.0
3 -.0925 0 0 -1 -1 0 0 14 644 1446 646 ?498 614 647 5 642 -0 0 498 614 22 50 645
 1462 0 614 642 648 0 +-.01 -.03 -.0945 0 0 1 1 0 0 14 614 1438 649 ?644 610 650
 5 645 -0 0 644 610 22 51 648 1116 0 611 645 651 0 +.1255 -.024 -.1095 0 0 1 .00
15 1 0 0 14 611 1083 652 ?544 606 653 5 648 -606 606 544 606 22 50 651 869 0 603
 648 654 0 +.1295 0 0 -1 0 0 0 0 1 14 603 856 655 ?532 656 657 5 651 -0 0 532 65
6 22 50 654 867 0 656 651 658 0 +.1295 -.02 -.01475 0 -1 0 0 0 -1 14 656 852 659
 ?603 660 661 5 654 -0 0 603 660 22 50 658 866 0 660 654 662 0 +.1295 -.03 -.016
75 0 0 1 1 0 0 14 660 848 663 ?656 664 665 5 658 -0 0 656 664 22 50 662 864 0 66
4 658 666 0 +.1295 -.03 -.01475 0 0 -1 -1 0 0 14 664 840 667 ?660 529 668 5 662
 -0 0 660 529 22 50 666 758 0 529 662 669 0 +.1295 0 0 -1 0 0 0 0 1 14 529 745 6
70 ?664 540 527 5 666 -0 0 664 540 22 50 669 756 0 540 666 671 0 +.1295 -.02 -.0
925 0 -1 0 0 0 -1 14 540 741 672 ?529 525 539 5 669 -0 0 529 525 22 50 671 755 0
 525 669 673 0 +.1295 -.03 -.0945 0 0 1 1 0 0 14 525 737 674 ?540 536 675 5 671
 -0 0 540 536 22 50 673 753 0 536 671 676 0 +.1295 -.03 -.0925 0 0 -1 -1 0 0 14
 536 729 677 ?525 678 679 5 673 -0 0 525 678 22 51 676 595 0 678 673 680 0 +.021
 -.0162 -.0995 0 0 -1 .0055 -1 0 0 14 678 582 681 ?536 682 683 5 676 -0 0 536 68
2 22 51 680 466 0 682 676 684 0 +.1095 -.017 -.0845 1 0 0 .005 0 0 -1 14 682 453
 685 ?678 686 687 5 680 -0 0 678 686 22 51 684 409 0 686 680 688 0 +.1015 -.016
 -.03 0 0 1 .008 1 0 0 14 686 396 689 ?682 690 691 5 684 -0 0 682 690 22 50 688
 281 0 692 684 693 0 +.1165 -.03 -156208915904385e-31 -1 0 1340849063556952e-31
 1340849063556952e-31 0 1 14 692 266 694 ?690 695 696 5 688 +0 0 690 695 22 50 6
93 280 0 695 688 697 0 +0 -.03 -.1065 0 0 1 1 0 0 14 695 262 698 ?692 699 700 5
 693 +0 0 692 699 22 50 697 279 0 699 693 701 0 +.003 -.03 -364543339154548e-33
 1 0 -1215144463848488e-31 -1215144463848488e-31 0 -1 14 699 258 702 ?695 703 70
4 5 697 +0 0 695 703 22 50 701 278 0 703 697 705 0 +-687775827479792e-34 -.03 -.
003 -2292586091599305e-32 0 -1 -1 0 2292586091599305e-32 14 703 254 706 ?699 249
 707 5 701 +0 0 699 249 22 50 705 277 0 249 701 708 0 +0 -.03 0 0 -1 0 0 0 -1 14
 249 230 709 ?703 710 26 5 705 +0 0 703 710 22 50 708 3 0 710 705 711 0 +0 .003
 0 0 -1 0 0 0 -1 14 710 1 712 ?249 513 713 5 708 -0 0 249 513 22 50 711 70 0 690
 708 714 0 +0 0 0 0 -1 0 0 0 -1 14 690 48 715 ?686 692 716 5 711 +0 0 686 692 22
 50 714 91 0 513 711 597 0 +0 .003 -.1095 0 0 1 1 0 0 14 513 84 717 ?710 555 718
 5 714 -0 0 710 555 22 50 597 92 0 518 714 598 0 +.1195 .003 0 -1 0 0 0 0 1 81 1
 717 2496 579 513 719 0 715 720 721 14 555 88 720 ?513 518 722 5 598 -0 0 513 51
8 22 15 718 562 0 723 513 511 17 723 0 718 723 723 0 347 345 0 0 -17 347 0 724 3
47 347 0 723 345 0 0 +15 724 586 0 347 678 0 81 1 720 2497 579 555 725 0 717 726
 727 15 722 377 0 728 555 554 17 728 0 722 728 728 0 355 353 0 0 -17 355 0 729 3
55 355 0 728 353 0 0 +15 729 400 0 355 686 0 80 255 1 579 730 731 9000 1 1 1 1 1
 1 1 1 0 FFFFTFTFFFFFFF1 81 1 725 2324 732 555 0 720 733 719 734 81 1 726 2498 5
79 229 735 0 720 736 737 82 255 1 727 1482883195 14 229 1564 726 ?586 242 223 5
 590 +0 0 586 242 22 81 1 735 2357 732 229 0 726 738 739 740 81 1 736 2499 579 6
06 741 0 726 0 742 82 1 737 -1823276889 14 606 1093 736 ?611 602 743 5 648 -611
 611 611 602 22 81 1 741 2346 732 606 0 736 744 745 746 82 1 742 -1889206109 80
 1 732 0 747 8001 0 0 0 0 3 5 0 0 0 FFFFTFTFFFFFFF2 81 1 744 2345 732 602 0 605
 748 741 749 81 1 745 2347 732 611 0 652 741 750 751 83 255 3 746 .7921568627450
98 .819607843137255 .933333333333333 81 1 652 2477 579 611 745 0 649 655 752 81
 1 750 2348 732 544 0 609 745 753 754 83 3 751 .792156862745098 .819607843137255
 .933333333333333 81 1 609 2465 579 544 750 0 605 613 755 81 1 753 2349 732 610
 0 613 750 756 757 83 3 754 .792156862745098 .819607843137255 .933333333333333 8
1 1 613 2466 579 610 753 0 609 616 758 81 1 756 2350 732 614 0 649 753 759 760 8
3 3 757 .792156862745098 .819607843137255 .933333333333333 81 1 649 2476 579 614
 756 0 646 652 761 81 1 759 2351 732 644 0 646 756 762 763 83 3 760 .79215686274
5098 .819607843137255 .933333333333333 81 1 646 2475 579 644 759 0 643 649 764 8
1 1 762 2352 732 498 0 643 759 765 766 83 3 763 .792156862745098 .81960784313725
5 .933333333333333 81 1 643 2474 579 498 762 0 640 646 767 81 1 765 2353 732 636
 0 640 762 768 769 83 3 766 .792156862745098 .819607843137255 .933333333333333 8
1 1 640 2473 579 636 765 0 635 643 770 81 1 768 2354 732 561 0 635 765 630 771 8
3 3 769 .792156862745098 .819607843137255 .933333333333333 81 1 635 2472 579 561
 768 0 631 640 772 81 1 630 2355 732 626 0 628 768 738 773 83 3 771 .79215686274
5098 .819607843137255 .933333333333333 81 1 738 2356 732 242 0 631 630 735 774 8
3 3 773 .792156862745098 .819607843137255 .933333333333333 81 1 631 2471 579 242
 738 0 628 635 775 83 3 774 .792156862745098 .819607843137255 .933333333333333 8
2 1 775 -1816461142 82 1 772 -1815936855 82 1 770 -1835007833 82 1 767 -18284542
30 82 1 764 -1828192086 82 1 761 -1827667799 81 1 616 2467 579 586 739 0 613 618
 776 82 1 758 -1880424284 81 1 739 2358 732 586 0 616 735 777 778 82 1 776 -1803
419481 81 1 777 2359 732 576 0 585 739 580 779 83 3 778 .792156862745098 .819607
843137255 .933333333333333 81 1 585 2460 579 576 777 0 581 591 780 81 1 580 2360
 732 573 0 574 777 781 782 83 3 779 .792156862745098 .819607843137255 .933333333
333333 81 1 781 2361 732 575 0 581 580 620 783 83 3 782 .792156862745098 .819607
843137255 .933333333333333 81 1 581 2459 579 575 781 0 574 585 784 81 1 620 2362
 732 583 0 618 781 785 786 83 3 783 .792156862745098 .819607843137255 .933333333
333333 81 1 785 2363 732 18 0 621 620 0 787 83 3 786 .792156862745098 .819607843
137255 .933333333333333 81 1 621 2469 579 18 785 0 618 628 788 83 3 787 .7921568
62745098 .819607843137255 .933333333333333 82 1 788 -1761804118 82 1 784 -176940
6295 82 1 780 -1801453401 81 1 605 2464 579 602 744 0 601 609 789 82 1 755 -1882
390364 81 1 601 2463 579 532 748 0 594 605 790 82 1 789 -1920139103 81 1 748 234
4 732 532 0 601 791 744 792 81 1 594 2462 579 518 733 0 591 601 793 82 1 790 -19
22105183 81 1 733 2323 732 518 0 594 593 725 794 82 1 793 2094792868 81 1 593 23
22 732 16 0 591 0 733 795 83 3 794 .792156862745098 .819607843137255 .9333333333
33333 83 3 795 .792156862745098 .819607843137255 .933333333333333 81 1 791 2343
 732 603 0 655 796 748 797 83 3 792 .792156862745098 .819607843137255 .933333333
333333 81 1 655 2478 579 603 791 0 652 659 798 81 1 796 2342 732 656 0 659 799 7
91 800 83 3 797 .792156862745098 .819607843137255 .933333333333333 81 1 659 2479
 579 656 796 0 655 663 801 81 1 799 2341 732 660 0 663 802 796 803 83 3 800 .792
156862745098 .819607843137255 .933333333333333 81 1 663 2480 579 660 799 0 659 6
67 804 81 1 802 2340 732 664 0 667 805 799 806 83 3 803 .792156862745098 .819607
843137255 .933333333333333 81 1 667 2481 579 664 802 0 663 670 807 81 1 805 2339
 732 529 0 670 808 802 809 83 3 806 .792156862745098 .819607843137255 .933333333
333333 81 1 670 2482 579 529 805 0 667 672 810 81 1 808 2338 732 540 0 672 811 8
05 812 83 3 809 .792156862745098 .819607843137255 .933333333333333 81 1 672 2483
 579 540 808 0 670 674 813 81 1 811 2337 732 525 0 674 814 808 815 83 3 812 .792
156862745098 .819607843137255 .933333333333333 81 1 674 2484 579 525 811 0 672 6
77 816 81 1 814 2336 732 536 0 677 817 811 818 83 3 815 .792156862745098 .819607
843137255 .933333333333333 81 1 677 2485 579 536 814 0 674 681 819 81 1 817 2335
 732 678 0 681 820 814 821 83 3 818 .792156862745098 .819607843137255 .933333333
333333 81 1 681 2486 579 678 817 0 677 685 822 81 1 820 2334 732 682 0 685 823 8
17 824 83 3 821 .792156862745098 .819607843137255 .933333333333333 81 1 685 2487
 579 682 820 0 681 689 825 81 1 823 2333 732 686 0 689 826 820 827 83 3 824 .792
156862745098 .819607843137255 .933333333333333 81 1 689 2488 579 686 823 0 685 6
94 828 81 1 826 2332 732 690 0 715 829 823 830 83 3 827 .792156862745098 .819607
843137255 .933333333333333 81 1 715 2495 579 690 826 0 712 717 831 81 1 829 2331
 732 692 0 694 832 826 833 83 3 830 .792156862745098 .819607843137255 .933333333
333333 81 1 694 2489 579 692 829 0 689 698 834 81 1 832 2330 732 695 0 698 835 8
29 836 83 3 833 .792156862745098 .819607843137255 .933333333333333 81 1 698 2490
 579 695 832 0 694 702 837 81 1 835 2329 732 699 0 702 838 832 839 83 3 836 .792
156862745098 .819607843137255 .933333333333333 81 1 702 2491 579 699 835 0 698 7
06 840 81 1 838 2328 732 703 0 706 841 835 842 83 3 839 .792156862745098 .819607
843137255 .933333333333333 81 1 706 2492 579 703 838 0 702 709 843 81 1 841 2327
 732 249 0 709 844 838 845 83 3 842 .792156862745098 .819607843137255 .933333333
333333 81 1 709 2493 579 249 841 0 706 712 846 81 1 844 2326 732 710 0 712 719 8
41 847 83 3 845 .792156862745098 .819607843137255 .933333333333333 81 1 712 2494
 579 710 844 0 709 715 848 81 1 719 2325 732 513 0 717 725 844 849 83 3 847 .792
156862745098 .819607843137255 .933333333333333 83 3 849 .792156862745098 .819607
843137255 .933333333333333 82 1 848 1475805294 82 1 846 1407451306 82 1 843 -642
842501 82 1 840 -643104648 82 1 837 -643366783 82 1 834 -643628930 82 1 831 1481
441400 82 1 828 -459603845 82 1 825 -1556545410 82 1 822 1666187393 82 1 819 207
5263140 82 1 816 2074738851 82 1 813 2074476708 82 1 810 2067923105 82 1 807 208
6994083 82 1 804 2086469796 82 1 801 2086207652 82 1 798 2079654049 82 1 752 -18
88026461 83 3 749 .792156862745098 .819607843137255 .933333333333333 79 255 15 7
47 SDL/TYSA_COLOUR15 743 1096 0 850 606 851 17 850 0 743 850 850 0 445 289 0 0 -
15 851 1097 0 852 606 0 17 852 0 851 852 852 0 292 290 0 0 -17 292 0 668 292 292
 0 852 290 0 0 +15 668 1058 0 292 664 853 15 853 843 0 854 664 0 17 854 0 853 11
5 551 119 206 300 0 0 -17 115 0 853 200 854 113 121 437 0 855 +17 551 0 853 854
 136 201 321 319 0 0 -17 206 0 657 204 436 201 854 300 0 550 +15 657 858 0 307 6
03 0 17 204 0 657 307 206 193 550 302 0 856 +17 436 0 657 206 307 119 857 434 0
 854 +17 550 0 26 321 856 201 204 302 0 551 -17 856 0 26 550 88 193 318 316 0 85
8 -17 88 0 26 856 545 86 546 463 0 318 +17 318 0 859 455 858 86 856 316 0 860 +1
7 858 0 859 318 118 193 307 305 0 0 -15 859 851 0 318 660 0 17 118 0 859 858 861
 116 862 441 0 307 +17 307 0 657 436 204 116 858 305 0 857 +17 857 0 607 862 121
 116 436 434 0 0 -15 607 1014 0 862 602 0 17 862 0 607 863 857 110 118 441 0 0 -
17 121 0 607 857 863 119 115 437 0 436 -17 863 0 607 121 862 113 112 439 0 0 -17
 112 0 661 315 855 110 863 439 0 861 +15 661 855 0 855 656 0 17 315 0 661 462 11
2 89 861 313 0 0 +17 855 0 661 112 311 113 200 308 0 863 -17 861 0 859 118 455 1
10 315 313 0 862 -17 455 0 859 861 318 89 860 453 0 315 +17 860 0 615 546 91 86
 455 453 0 0 -15 615 1349 0 546 610 0 17 546 0 615 547 860 98 88 463 0 0 -17 91
 0 615 860 547 89 462 460 0 455 -17 547 0 615 91 546 95 100 448 0 0 -17 462 0 66
1 311 315 95 91 460 0 547 +17 311 0 661 855 462 198 97 303 0 552 +17 97 0 515 10
0 552 95 311 303 0 462 -17 552 0 515 97 548 198 136 299 0 0 -17 136 0 853 551 20
0 134 552 299 0 321 +17 200 0 853 136 115 198 855 308 0 311 +17 445 0 665 445 44
5 0 850 289 0 0 +15 665 1052 0 445 660 859 83 3 740 .792156862745098 .8196078431
37255 .933333333333333 50 590 1577 0 229 578 634 0 +-.01 0 0 -1 0 0 0 0 1 83 3 7
34 .792156862745098 .819607843137255 .933333333333333 79 14 731 SWEntUnchanged82
 1 721 1482358913 15 716 153 0 142 690 0 17 142 0 716 145 148 140 864 368 0 865
 +17 145 0 716 179 142 143 865 370 0 382 +17 148 0 716 142 179 146 866 360 0 864
 +17 864 0 867 868 385 146 142 368 0 376 -17 865 0 704 869 382 140 145 370 0 385
 -15 704 261 0 865 699 0 17 869 0 704 186 865 180 385 383 0 870 -17 382 0 704 86
5 186 143 871 380 0 872 +17 385 0 867 864 188 140 869 383 0 0 +15 867 257 0 864
 703 0 17 188 0 867 385 868 180 873 357 0 869 +17 868 0 867 188 864 176 376 367
 0 873 -17 873 0 250 874 870 176 188 357 0 0 -15 250 233 0 870 249 0 17 874 0 25
0 875 873 161 183 365 0 0 -17 870 0 250 873 875 180 186 359 0 0 -17 875 0 250 87
0 874 184 364 362 0 0 -17 186 0 704 382 869 184 870 359 0 871 +17 871 0 876 364
 872 184 382 380 0 875 -15 876 265 0 872 695 0 17 364 0 876 379 871 161 875 362
 0 874 +17 872 0 876 871 379 143 179 372 0 0 -17 379 0 876 872 364 177 163 377 0
 866 +17 179 0 716 148 145 177 872 372 0 379 +17 163 0 877 183 866 161 379 377 0
 364 -17 866 0 877 163 376 177 148 360 0 0 -15 877 269 0 866 692 0 17 376 0 877
 866 183 146 868 367 0 0 +17 183 0 877 376 163 176 874 365 0 868 +15 713 4 0 402
 710 0 17 402 0 713 157 151 158 508 399 0 510 +17 157 0 713 154 402 155 160 403
 0 553 +17 151 0 713 402 154 149 512 407 0 509 +17 154 0 713 151 157 152 516 405
 0 514 +15 707 372 0 878 703 867 17 878 0 707 878 878 0 421 356 0 0 -17 421 0 69
1 421 421 0 878 356 0 0 +15 691 399 0 421 686 729 15 700 556 0 879 695 876 17 87
9 0 700 879 879 0 425 348 0 0 -17 425 0 683 425 425 0 879 348 0 0 +15 683 585 0
 425 678 724 15 696 429 0 880 692 877 17 880 0 696 880 880 0 423 352 0 0 -17 423
 0 687 423 423 0 880 352 0 0 +15 687 456 0 423 682 881 15 881 457 0 351 682 0 17
 351 0 881 351 351 0 882 349 0 0 +17 882 0 596 882 882 0 351 349 0 0 -15 596 434
 0 882 518 515 15 679 1068 0 298 536 534 17 298 0 679 298 298 0 883 296 0 0 +17
 883 0 884 883 883 0 298 296 0 0 -15 884 1087 0 883 611 0 15 675 1063 0 295 525
 523 17 295 0 675 295 295 0 885 293 0 0 +17 885 0 653 885 885 0 295 293 0 0 -15
 653 1086 0 885 611 884 15 650 1775 0 565 614 886 17 565 0 650 565 565 0 887 261
 0 0 +15 886 1441 0 888 614 0 17 888 0 886 61 507 65 211 267 0 0 -17 61 0 886 82
 888 59 67 475 0 497 +17 507 0 886 888 277 209 288 286 0 0 -17 211 0 641 208 474
 209 888 267 0 506 +15 641 1456 0 274 636 0 17 208 0 641 274 211 202 506 269 0 2
7 +17 474 0 641 211 274 65 889 472 0 888 +17 506 0 26 288 27 209 208 269 0 507 -
17 27 0 26 506 23 202 30 284 0 890 -17 30 0 891 37 890 11 27 284 0 34 +17 890 0
 891 30 64 202 274 272 0 0 -15 891 1449 0 30 644 0 17 64 0 891 890 499 62 892 47
9 0 274 +17 274 0 641 474 208 62 890 272 0 889 +17 889 0 587 892 67 62 474 472 0
 0 -15 587 1721 0 892 576 0 17 892 0 587 893 889 56 64 479 0 0 -17 67 0 587 889
 893 65 61 475 0 474 -17 893 0 587 67 892 59 58 477 0 0 -17 58 0 496 283 497 56
 893 477 0 499 +17 497 0 496 58 279 59 82 275 0 893 -17 499 0 891 64 37 56 283 2
81 0 892 -17 37 0 891 499 30 25 34 491 0 283 +17 34 0 33 29 31 11 37 491 0 0 -17
 82 0 886 277 61 80 497 275 0 503 +17 277 0 886 507 82 83 503 266 0 0 +17 503 0
 500 43 85 80 277 266 0 279 -17 887 0 894 887 887 0 565 261 0 0 -15 894 1794 0 8
87 575 0 15 647 1770 0 568 644 891 17 568 0 647 568 568 0 895 566 0 0 +17 895 0
 584 895 895 0 568 566 0 0 -15 584 1793 0 895 575 894 15 633 1759 0 483 242 235
 17 483 0 633 483 483 0 589 481 0 0 +17 589 0 577 589 589 0 483 481 0 0 -82 1 63
2 -1816198998 17 52 0 619 243 502 50 49 493 0 238 -82 1 622 -1763770198 82 1 595
 -1808269142 82 1 582 -1770585943 17 519 0 515 139 452 189 94 326 0 333 -17 191
 0 539 94 124 189 524 337 0 519 +17 524 0 523 130 333 122 191 337 0 526 -17 197
 0 527 195 427 192 530 323 0 521 +19 17 100 0 1 0 9 5 S0 74 4 CI16 index_map_off
set0 0 1 dCCZ20 15 9 0 0 736 896 897 898 899 900 13 785 2 0 0 0 0 0 0 0 0 0 0 0
 81 2 896 1600 901 1 0 897 0 0 0 902 81 2 897 1612 903 1 896 898 0 0 0 904 81 1
 898 2093 905 1 897 899 0 0 906 81 2 899 2094 907 1 898 900 0 0 0 0 81 2 900 213
8 908 1 899 13 0 0 909 0 81 2 13 2320 910 1 900 2 0 0 0 911 80 2 910 912 913 900
0 0 0 0 0 3 5 0 0 0 FFTFFFFFFFFFFF9 1 82 1 911 1 79 24 913 BODY_IN_LIGHTWEIGHT_P
ERM80 2 908 914 915 8004 0 0 0 0 3 5 0 0 0 FFTFFFFFFFFFFF2 3 83 1 909 1 79 16 91
5 SDL/TYSA_DENSITY80 2 907 916 917 9000 0 0 0 0 3 5 0 0 0 FFTFFFFFFFFFFF9 1 79 1
6 917 BODY_RECIPE_200180 1 905 918 919 9000 1 1 1 1 1 1 1 1 0 FFTFFFFFFFFFFF1 82
 1 906 807741 79 10 919 BODY_MATCH80 2 903 920 921 9000 0 0 0 0 3 5 0 0 0 FFTFFF
FFFFFFFF9 1 82 1 904 185 79 30 921 LAST_BODY_MODIFYING_FEATURE_ID80 2 901 922 92
3 9000 0 0 0 0 3 5 0 0 0 FFTFFFFFFFFFFF9 1 82 1 902 162 79 19 923 ENT_TIME_STAMP
_200180 2 12 924 925 9000 0 0 0 0 3 5 0 0 0 FFTFFFFFFFFFFF9 1 82 1 14 109 79 12
 925 ATOM_ID_20011 0 
